<svg width="34" height="34" viewBox="0 0 34 34" fill="none" xmlns="http://www.w3.org/2000/svg">
<g clip-path="url(#clip0_172_54)">
<path d="M17.004 0.116177C16.8779 0.175942 16.7185 0.335317 16.6388 0.461489C16.5126 0.68063 16.506 0.800161 16.506 2.78571C16.506 4.75797 16.5126 4.89079 16.6388 5.10329C17.0107 5.73415 17.8806 5.70094 18.2126 5.03688C18.3189 4.83766 18.3322 4.57868 18.3322 2.7525C18.3322 0.813442 18.3255 0.68063 18.1993 0.47477C17.9271 0.036489 17.449 -0.109605 17.004 0.116177Z" fill="#4A09FF"/>
<path d="M5.39632 3.7221C4.95803 3.81507 4.68577 4.22679 4.73889 4.70491C4.7721 5.00374 4.8053 5.04358 6.25296 6.4514C7.84007 7.99202 8.12561 8.20452 8.53733 8.12483C9.06858 8.02522 9.40061 7.49397 9.24788 6.97601C9.18147 6.77015 8.90257 6.46468 7.82014 5.43538C7.08303 4.73147 6.38577 4.06741 6.27288 3.96116C6.03382 3.74202 5.70843 3.65569 5.39632 3.7221Z" fill="#4A09FF"/>
<path d="M28.406 3.99427C28.167 4.10716 25.3181 6.81653 25.1986 7.04896C25.0592 7.32122 25.0791 7.77942 25.2451 7.99192C25.5306 8.35716 26.0951 8.47669 26.4404 8.24427C26.7193 8.06497 29.3756 5.50833 29.515 5.28919C29.6744 5.05013 29.681 4.58528 29.5349 4.35286C29.2959 3.99427 28.7779 3.82825 28.406 3.99427Z" fill="#4A09FF"/>
<path d="M16.0678 6.84314C12.3424 7.38767 9.32754 10.283 8.52403 14.0748C8.33809 14.9513 8.35801 16.7443 8.55723 17.6541C8.94239 19.3674 9.52676 20.4631 10.9943 22.2095C12.0436 23.4513 12.2361 23.717 12.5283 24.3013C12.7807 24.7994 12.7807 24.806 12.8205 25.8353C12.8604 26.8115 12.8736 26.8978 13.0596 27.2631C13.2854 27.7279 13.6639 28.04 14.1818 28.1861C14.4807 28.2724 14.9854 28.2857 17.5752 28.2724C20.6166 28.2525 20.6232 28.2525 20.9686 28.0931C21.7455 27.7478 21.9846 27.2232 21.9846 25.8685C21.9846 25.1115 22.0111 24.9521 22.1439 24.6267C22.3564 24.1021 22.8014 23.458 23.6314 22.4685C24.3951 21.5521 24.8334 20.981 25.1189 20.5427C25.6568 19.706 26.1482 18.4045 26.3342 17.3287C26.4803 16.5052 26.4803 15.0974 26.3342 14.274C25.69 10.5154 22.6752 7.50056 18.9365 6.87634C18.2658 6.76345 16.7252 6.74353 16.0678 6.84314ZM18.8967 8.72243C21.3604 9.25368 23.3658 11.0134 24.2158 13.3709C24.9795 15.5224 24.6873 17.8998 23.4322 19.7857C23.2928 19.9849 22.7881 20.6291 22.3033 21.2134C20.5834 23.2787 20.2182 24.0224 20.1385 25.6162L20.092 26.4595H17.4025H14.7131L14.6666 25.5963C14.567 23.9295 14.2283 23.2388 12.515 21.1802C12.0104 20.5759 11.4658 19.8787 11.3064 19.6263C10.4697 18.3381 10.0713 16.6646 10.2307 15.1107C10.5693 11.797 13.0795 9.14743 16.3799 8.62946C16.9178 8.54978 18.3322 8.59626 18.8967 8.72243Z" fill="#4A09FF"/>
<path d="M1.49157 13.4041C1.41853 13.4373 1.27243 13.5569 1.17946 13.6764C0.947041 13.9487 0.927119 14.4533 1.13962 14.7455C1.41188 15.1307 1.47165 15.1373 3.6697 15.1373C5.54899 15.1373 5.69509 15.1307 5.89431 15.0045C6.23962 14.7987 6.33923 14.5729 6.31931 14.0549C6.31267 13.9487 6.2197 13.776 6.08688 13.6233L5.8611 13.3776L3.74274 13.3643C2.58063 13.3576 1.57126 13.3776 1.49157 13.4041Z" fill="#4A09FF"/>
<path d="M28.1139 13.4705C27.8084 13.6631 27.6756 13.9022 27.6822 14.2475C27.6822 14.5928 27.8151 14.8252 28.1139 15.0045C28.3131 15.1307 28.4592 15.1373 30.3518 15.1373C32.2444 15.1373 32.3904 15.1307 32.5897 15.0045C32.8619 14.8385 33.008 14.553 33.008 14.1744C33.008 13.9221 32.9682 13.8291 32.7822 13.6233L32.5565 13.3776L30.4381 13.3576C28.4326 13.3444 28.3131 13.351 28.1139 13.4705Z" fill="#4A09FF"/>
<path d="M14.4474 29.2752C14.1154 29.4279 13.7435 29.7865 13.5775 30.1185C13.4712 30.3377 13.4447 30.5568 13.4314 31.4865C13.4115 32.5025 13.4181 32.6154 13.5576 32.9342C13.6439 33.1334 13.8232 33.3791 13.9958 33.5318C14.5271 33.9967 14.5935 34.0033 17.5419 33.9834C20.0986 33.9635 20.165 33.9568 20.4306 33.8174C20.8025 33.6181 21.1146 33.2928 21.2806 32.9342C21.4068 32.6685 21.4201 32.5092 21.4201 31.5396C21.4201 30.4838 21.4134 30.4306 21.2408 30.1119C21.0283 29.7002 20.7759 29.4611 20.3908 29.2885C20.1052 29.1556 19.9658 29.149 17.4025 29.149C14.9322 29.149 14.6931 29.1623 14.4474 29.2752ZM19.5939 31.5728V32.2037L17.4224 32.1904L15.2443 32.1705L15.2244 31.5529L15.2044 30.942H17.4025H19.5939V31.5728Z" fill="#4A09FF"/>
</g>
<defs>
<clipPath id="clip0_172_54">
<rect width="34" height="34" fill="white"/>
</clipPath>
</defs>
</svg>
