<svg version="1.1" xmlns="http://www.w3.org/2000/svg" xmlns:xlink="http://www.w3.org/1999/xlink" width="512.000000pt" height="512.000000pt" viewBox="0,0,256,256"><g fill="#3b6eea" fill-rule="nonzero" stroke="none" stroke-width="1" stroke-linecap="butt" stroke-linejoin="miter" stroke-miterlimit="10" stroke-dasharray="" stroke-dashoffset="0" font-family="none" font-weight="none" font-size="none" text-anchor="none" style="mix-blend-mode: normal"><g transform="translate(-0.14693,0.03614) scale(0.5,0.5)"><g transform="translate(0,512) scale(0.1,-0.1)"><path d="M725,4672c-120,-41 -205,-117 -258,-230c-30,-63 -32,-74 -32,-177c0,-105 2,-114 34,-180c38,-76 103,-148 171,-188c73,-42 149,-57 297,-57h133l2,-1548l3,-1548l37,-75c46,-93 112,-158 206,-202l67,-32l1420,-3c996,-2 1436,1 1473,9c182,37 348,199 397,384c21,81 21,364 1,404c-25,48 -45,51 -346,51h-280v1478c0,1630 4,1530 -63,1656c-41,78 -135,172 -213,213c-125,67 -33,63 -1589,63c-1311,-1 -1414,-2 -1460,-18zM963,4447c30,-18 56,-44 74,-75c27,-45 28,-52 28,-182v-135h-135c-130,0 -137,1 -182,28c-84,49 -124,150 -98,245c14,52 83,126 132,141c55,17 130,8 181,-22zM3650,4452c72,-35 114,-75 151,-144l34,-63l3,-1482l2,-1483h-1026c-945,0 -1028,-1 -1055,-17c-15,-9 -33,-28 -38,-42c-6,-14 -11,-116 -13,-226c-3,-198 -3,-200 -31,-247c-82,-140 -282,-141 -369,-1l-23,38l-5,1790l-5,1790l-22,55c-13,30 -23,56 -23,58c0,1 534,1 1188,0l1187,-3zM4478,972c-4,-87 -9,-105 -38,-161c-37,-69 -68,-99 -144,-139l-51,-27l-1187,-3c-654,-1 -1188,-1 -1188,0c0,2 10,28 22,58c18,46 22,81 26,213l4,157h1280h1281z"></path><path d="M1758,3823c-56,-35 -66,-117 -19,-164l29,-29h792h792l29,29c48,49 34,142 -26,169c-19,9 -220,12 -798,12c-701,-1 -774,-2 -799,-17z"></path><path d="M1758,3183c-56,-35 -66,-117 -19,-164l29,-29h792h792l29,29c48,49 34,142 -26,169c-19,9 -220,12 -798,12c-701,-1 -774,-2 -799,-17z"></path><path d="M1758,2543c-56,-35 -66,-117 -19,-164l29,-29h792h792l29,29c48,49 34,142 -26,169c-19,9 -220,12 -798,12c-701,-1 -774,-2 -799,-17z"></path><path d="M1758,1903c-56,-35 -66,-117 -19,-164l29,-29h575c561,0 575,0 600,20c38,30 52,80 33,123c-28,69 -12,67 -633,67c-502,-1 -561,-2 -585,-17z"></path></g></g></g></svg>