<svg version="1.1" xmlns="http://www.w3.org/2000/svg" xmlns:xlink="http://www.w3.org/1999/xlink" width="512.000000pt" height="512.000000pt" viewBox="0,0,256,256"><g fill="#3b6eea" fill-rule="nonzero" stroke="none" stroke-width="1" stroke-linecap="butt" stroke-linejoin="miter" stroke-miterlimit="10" stroke-dasharray="" stroke-dashoffset="0" font-family="none" font-weight="none" font-size="none" text-anchor="none" style="mix-blend-mode: normal"><g transform="translate(0.01887,-0.11244) scale(0.5,0.5)"><g transform="translate(0,512) scale(0.1,-0.1)"><path d="M2295,4804c-583,-59 -1066,-247 -1473,-573c-571,-457 -883,-1149 -811,-1799c55,-501 318,-942 760,-1273c52,-39 99,-74 106,-78c18,-10 -11,-138 -52,-234c-59,-139 -94,-186 -270,-365l-170,-174l285,5c268,4 291,6 388,30c226,59 404,154 589,315l62,54l153,-31c290,-58 375,-66 713,-66c333,0 449,10 702,61c428,86 822,269 1124,522c518,435 782,1086 704,1742c-41,351 -175,678 -394,965c-68,89 -254,278 -351,355c-348,277 -781,450 -1320,525c-110,16 -644,29 -745,19zM2923,4495c825,-87 1441,-468 1732,-1070c274,-566 200,-1229 -194,-1735c-296,-381 -761,-639 -1326,-735c-218,-37 -399,-49 -654,-42c-294,7 -515,40 -773,116l-97,28l-85,-93c-47,-51 -116,-115 -153,-144c-64,-48 -282,-165 -291,-155c-2,2 10,38 27,79c44,107 71,231 80,370c5,67 8,121 7,122c-1,1 -48,32 -106,69c-154,99 -252,179 -371,302c-205,213 -330,443 -391,726c-32,147 -32,426 1,577c150,706 699,1266 1465,1496c140,42 304,73 521,98c89,10 485,4 608,-9z"></path></g></g></g></svg>