<svg version="1.1" xmlns="http://www.w3.org/2000/svg" xmlns:xlink="http://www.w3.org/1999/xlink" width="277.000000pt" height="108.000000pt" viewBox="0,0,256,99.8"><g fill="#3b6eea" fill-rule="nonzero" stroke="none" stroke-width="1" stroke-linecap="butt" stroke-linejoin="miter" stroke-miterlimit="10" stroke-dasharray="" stroke-dashoffset="0" font-family="none" font-weight="none" font-size="none" text-anchor="none" style="mix-blend-mode: normal"><g transform="translate(0.02047,-0.46823) scale(0.92419,0.92419)"><g transform="translate(0,108) scale(0.1,-0.1)"><path d="M221,913c-22,-18 -22,-20 -19,-355l3,-336l25,-27c50,-54 56,-55 368,-55c233,0 292,3 308,14c18,14 19,30 19,381c0,351 -1,367 -19,381c-16,11 -80,14 -342,14c-292,0 -324,-2 -343,-17zM880,530v-350h-280c-298,0 -325,4 -350,49c-6,12 -10,138 -10,335v316h320h320z"></path><path d="M290,802c0,-4 4,-12 8,-17c5,-6 19,-36 32,-68c12,-32 27,-56 32,-55c6,2 19,26 29,53c10,28 23,58 28,67c7,12 7,19 0,23c-14,9 -41,-3 -34,-15c8,-12 -4,-70 -14,-70c-11,0 -30,60 -24,76c4,10 -3,14 -26,14c-17,0 -31,-4 -31,-8z"></path><path d="M440,800c0,-5 5,-10 10,-10c15,0 13,-117 -2,-123c-7,-3 13,-6 45,-6c52,-1 57,1 57,21c0,17 -3,19 -12,10c-20,-20 -48,-15 -48,9c0,16 5,20 20,16c15,-4 20,0 20,15c0,15 -5,18 -20,13c-16,-5 -20,-2 -20,19c0,27 18,34 37,15c8,-8 13,-8 17,0c13,21 -5,31 -55,31c-27,0 -49,-4 -49,-10z"></path><path d="M762,794c-32,-22 -27,-49 13,-80c19,-14 35,-30 35,-34c0,-16 -30,-19 -44,-5c-19,20 -26,19 -26,-4c0,-23 42,-36 70,-21c11,6 23,22 26,37c6,21 2,30 -17,45c-49,37 -51,40 -40,51c7,7 17,5 31,-8c19,-18 20,-18 20,2c0,18 -17,33 -39,33c-3,0 -17,-7 -29,-16z"></path><path d="M587,725c14,-41 29,-75 33,-75c5,0 13,15 18,33c10,33 12,31 28,-20c8,-28 23,-10 38,45c9,31 21,65 26,75c8,14 6,17 -10,17c-16,0 -20,-7 -20,-34c0,-19 -4,-37 -9,-40c-10,-6 -24,52 -15,65c3,5 -7,9 -21,9c-24,0 -25,-2 -19,-35c4,-22 2,-35 -4,-35c-6,0 -14,16 -18,35c-5,28 -11,35 -29,35h-22z"></path><path d="M320,480v-111l103,3l102,3l3,108l3,107h-106h-105z"></path><path d="M587,576c-3,-8 -3,-17 0,-20c4,-3 58,-6 120,-6c104,0 114,2 111,18c-3,15 -18,17 -114,20c-90,2 -113,0 -117,-12z"></path><path d="M586,481c-14,-22 26,-32 125,-29c90,3 104,5 107,21c3,15 -7,17 -112,17c-63,0 -117,-4 -120,-9z"></path><path d="M587,404c-4,-4 -7,-13 -7,-21c0,-10 27,-13 121,-13c109,0 120,2 117,18c-3,15 -18,17 -114,20c-60,1 -113,-1 -117,-4z"></path><path d="M320,291c0,-10 7,-22 16,-25c9,-3 115,-6 235,-6c226,0 273,7 248,36c-9,11 -56,14 -255,14c-233,0 -244,-1 -244,-19z"></path><path d="M2361,752c-54,-27 -76,-65 -75,-126c0,-70 19,-96 104,-146c38,-22 74,-49 80,-60c39,-72 -46,-144 -109,-92c-12,9 -28,35 -35,57c-8,22 -21,41 -30,43c-14,3 -16,-9 -16,-76v-80l76,-7c49,-5 90,-3 115,4c52,16 91,67 97,129c6,68 -16,113 -72,148c-26,16 -61,38 -79,49c-43,28 -56,65 -33,99c30,47 95,26 116,-39c6,-19 18,-35 26,-35c11,0 14,16 14,69v68l-52,7c-78,9 -90,8 -127,-12z"></path><path d="M990,744c0,-9 6,-22 14,-28c8,-6 33,-72 56,-146c99,-321 90,-300 127,-300c36,0 30,-16 122,305c22,77 47,145 55,151c32,23 17,34 -49,34c-36,0 -65,-3 -65,-7c0,-4 9,-16 19,-27c19,-21 19,-23 -18,-171l-38,-150l-12,45c-7,25 -26,94 -42,153c-28,100 -29,110 -15,126c9,10 16,21 16,24c0,4 -38,7 -85,7c-72,0 -85,-2 -85,-16z"></path><path d="M1390,749c0,-7 7,-17 16,-23c13,-10 16,-43 17,-215c1,-181 -1,-204 -16,-213c-40,-22 -10,-28 143,-28h160v28c0,15 3,44 6,65c6,33 4,37 -15,37c-11,0 -21,-6 -21,-14c0,-47 -84,-90 -129,-67c-19,11 -21,21 -21,98v86l33,-7c17,-3 40,-16 49,-29c9,-12 19,-20 21,-17c2,3 7,35 11,72c7,75 -5,95 -29,48c-13,-25 -22,-30 -51,-30h-35l3,88l3,87l32,3c40,4 71,-12 83,-44c20,-51 50,-14 50,62v24h-155c-109,0 -155,-3 -155,-11z"></path><path d="M1730,748c0,-6 6,-19 13,-27c7,-9 40,-114 72,-234l59,-218l30,3c29,3 31,6 52,88c11,47 27,105 34,130l13,45l14,-50c61,-214 62,-215 92,-215h29l53,217c34,135 61,224 72,235c29,30 20,38 -43,38c-62,0 -76,-11 -43,-35c15,-11 14,-21 -7,-131c-13,-65 -26,-127 -30,-138c-4,-12 -19,29 -43,120c-32,121 -35,140 -22,150c33,25 15,34 -65,34c-61,0 -80,-3 -80,-14c0,-7 6,-19 14,-25c8,-7 20,-34 26,-62c10,-41 9,-61 -5,-122c-10,-39 -21,-78 -25,-86c-4,-8 -21,42 -41,122c-31,129 -32,137 -16,155c9,10 17,22 17,25c0,4 -38,7 -85,7c-58,0 -85,-4 -85,-12z"></path></g></g></g></svg>