<?xml version="1.0" standalone="no"?>
<!DOCTYPE svg PUBLIC "-//W3C//DTD SVG 20010904//EN"
 "http://www.w3.org/TR/2001/REC-SVG-20010904/DTD/svg10.dtd">
<svg version="1.0" xmlns="http://www.w3.org/2000/svg"
 width="277.000000pt" height="108.000000pt" viewBox="0 0 277.000000 108.000000"
 preserveAspectRatio="xMidYMid meet">

<g transform="translate(0.000000,108.000000) scale(0.100000,-0.100000)"
fill="#000000" stroke="none">
<path d="M221 913 c-22 -18 -22 -20 -19 -355 l3 -336 25 -27 c50 -54 56 -55
368 -55 233 0 292 3 308 14 18 14 19 30 19 381 0 351 -1 367 -19 381 -16 11
-80 14 -342 14 -292 0 -324 -2 -343 -17z m659 -383 l0 -350 -280 0 c-298 0
-325 4 -350 49 -6 12 -10 138 -10 335 l0 316 320 0 320 0 0 -350z"/>
<path d="M290 802 c0 -4 4 -12 8 -17 5 -6 19 -36 32 -68 12 -32 27 -56 32 -55
6 2 19 26 29 53 10 28 23 58 28 67 7 12 7 19 0 23 -14 9 -41 -3 -34 -15 8 -12
-4 -70 -14 -70 -11 0 -30 60 -24 76 4 10 -3 14 -26 14 -17 0 -31 -4 -31 -8z"/>
<path d="M440 800 c0 -5 5 -10 10 -10 15 0 13 -117 -2 -123 -7 -3 13 -6 45 -6
52 -1 57 1 57 21 0 17 -3 19 -12 10 -20 -20 -48 -15 -48 9 0 16 5 20 20 16 15
-4 20 0 20 15 0 15 -5 18 -20 13 -16 -5 -20 -2 -20 19 0 27 18 34 37 15 8 -8
13 -8 17 0 13 21 -5 31 -55 31 -27 0 -49 -4 -49 -10z"/>
<path d="M762 794 c-32 -22 -27 -49 13 -80 19 -14 35 -30 35 -34 0 -16 -30
-19 -44 -5 -19 20 -26 19 -26 -4 0 -23 42 -36 70 -21 11 6 23 22 26 37 6 21 2
30 -17 45 -49 37 -51 40 -40 51 7 7 17 5 31 -8 19 -18 20 -18 20 2 0 18 -17
33 -39 33 -3 0 -17 -7 -29 -16z"/>
<path d="M587 725 c14 -41 29 -75 33 -75 5 0 13 15 18 33 10 33 12 31 28 -20
8 -28 23 -10 38 45 9 31 21 65 26 75 8 14 6 17 -10 17 -16 0 -20 -7 -20 -34 0
-19 -4 -37 -9 -40 -10 -6 -24 52 -15 65 3 5 -7 9 -21 9 -24 0 -25 -2 -19 -35
4 -22 2 -35 -4 -35 -6 0 -14 16 -18 35 -5 28 -11 35 -29 35 l-22 0 24 -75z"/>
<path d="M320 480 l0 -111 103 3 102 3 3 108 3 107 -106 0 -105 0 0 -110z"/>
<path d="M587 576 c-3 -8 -3 -17 0 -20 4 -3 58 -6 120 -6 104 0 114 2 111 18
-3 15 -18 17 -114 20 -90 2 -113 0 -117 -12z"/>
<path d="M586 481 c-14 -22 26 -32 125 -29 90 3 104 5 107 21 3 15 -7 17 -112
17 -63 0 -117 -4 -120 -9z"/>
<path d="M587 404 c-4 -4 -7 -13 -7 -21 0 -10 27 -13 121 -13 109 0 120 2 117
18 -3 15 -18 17 -114 20 -60 1 -113 -1 -117 -4z"/>
<path d="M320 291 c0 -10 7 -22 16 -25 9 -3 115 -6 235 -6 226 0 273 7 248 36
-9 11 -56 14 -255 14 -233 0 -244 -1 -244 -19z"/>
<path d="M2361 752 c-54 -27 -76 -65 -75 -126 0 -70 19 -96 104 -146 38 -22
74 -49 80 -60 39 -72 -46 -144 -109 -92 -12 9 -28 35 -35 57 -8 22 -21 41 -30
43 -14 3 -16 -9 -16 -76 l0 -80 76 -7 c49 -5 90 -3 115 4 52 16 91 67 97 129
6 68 -16 113 -72 148 -26 16 -61 38 -79 49 -43 28 -56 65 -33 99 30 47 95 26
116 -39 6 -19 18 -35 26 -35 11 0 14 16 14 69 l0 68 -52 7 c-78 9 -90 8 -127
-12z"/>
<path d="M990 744 c0 -9 6 -22 14 -28 8 -6 33 -72 56 -146 99 -321 90 -300
127 -300 36 0 30 -16 122 305 22 77 47 145 55 151 32 23 17 34 -49 34 -36 0
-65 -3 -65 -7 0 -4 9 -16 19 -27 19 -21 19 -23 -18 -171 l-38 -150 -12 45 c-7
25 -26 94 -42 153 -28 100 -29 110 -15 126 9 10 16 21 16 24 0 4 -38 7 -85 7
-72 0 -85 -2 -85 -16z"/>
<path d="M1390 749 c0 -7 7 -17 16 -23 13 -10 16 -43 17 -215 1 -181 -1 -204
-16 -213 -40 -22 -10 -28 143 -28 l160 0 0 28 c0 15 3 44 6 65 6 33 4 37 -15
37 -11 0 -21 -6 -21 -14 0 -47 -84 -90 -129 -67 -19 11 -21 21 -21 98 l0 86
33 -7 c17 -3 40 -16 49 -29 9 -12 19 -20 21 -17 2 3 7 35 11 72 7 75 -5 95
-29 48 -13 -25 -22 -30 -51 -30 l-35 0 3 88 3 87 32 3 c40 4 71 -12 83 -44 20
-51 50 -14 50 62 l0 24 -155 0 c-109 0 -155 -3 -155 -11z"/>
<path d="M1730 748 c0 -6 6 -19 13 -27 7 -9 40 -114 72 -234 l59 -218 30 3
c29 3 31 6 52 88 11 47 27 105 34 130 l13 45 14 -50 c61 -214 62 -215 92 -215
l29 0 53 217 c34 135 61 224 72 235 29 30 20 38 -43 38 -62 0 -76 -11 -43 -35
15 -11 14 -21 -7 -131 -13 -65 -26 -127 -30 -138 -4 -12 -19 29 -43 120 -32
121 -35 140 -22 150 33 25 15 34 -65 34 -61 0 -80 -3 -80 -14 0 -7 6 -19 14
-25 8 -7 20 -34 26 -62 10 -41 9 -61 -5 -122 -10 -39 -21 -78 -25 -86 -4 -8
-21 42 -41 122 -31 129 -32 137 -16 155 9 10 17 22 17 25 0 4 -38 7 -85 7 -58
0 -85 -4 -85 -12z"/>
</g>
</svg>
